<svg xmlns="http://www.w3.org/2000/svg" width="598.826" height="260.97" viewBox="0 0 598.826 260.97"><g transform="translate(-6862 -75)"><path d="M137.7,219.5h-4.705a47.706,47.706,0,0,1-6.3-18.784l2.953,0L137.7,219.5Zm-12.452,0H79.95v-105h57V133.25h-35.7v23.4h29.7v1.239a56.674,56.674,0,0,0-8.426,16.461H101.25v26.4l18.636-.025a56.072,56.072,0,0,0,5.361,18.774Zm-91.2,0H1.5v-105H34.65a44.216,44.216,0,0,1,14.9,2.379A29.622,29.622,0,0,1,68,135.193a44.991,44.991,0,0,1,2.5,15.457V182.9a43.931,43.931,0,0,1-2.594,15.464,31.526,31.526,0,0,1-7.362,11.5C54.144,216.167,44.983,219.5,34.05,219.5ZM22.8,133.25v67.5H33.75c10.108,0,15.45-6.121,15.45-17.7v-32.1c0-11.579-5.343-17.7-15.45-17.7Zm108.15,41.1h-1.272c.394-1.059.822-2.106,1.272-3.112v3.111ZM34.2,108a39.562,39.562,0,0,1-13.823-2.348A30.644,30.644,0,0,1,9.563,98.888C3.307,92.787,0,84.112,0,73.8v-39A39.162,39.162,0,0,1,2.59,20.377,31.254,31.254,0,0,1,9.806,9.413,31.688,31.688,0,0,1,20.82,2.442,39.265,39.265,0,0,1,34.8,0,38.341,38.341,0,0,1,48.4,2.348,29.975,29.975,0,0,1,59.025,9.112C65.158,15.207,68.4,23.882,68.4,34.2v4.5H47.7V34.2c0-9.723-4.811-15.3-13.2-15.3S21.3,24.477,21.3,34.2V73.8c0,9.723,4.811,15.3,13.2,15.3s13.2-5.577,13.2-15.3v-6H68.4v5.4a39.855,39.855,0,0,1-2.538,14.424,30.718,30.718,0,0,1-17.9,17.934A38.071,38.071,0,0,1,34.2,108Zm483.451-1.5h-22.2l-6.3-22.2H460.2l-6,22.2H413.55l-14.1-38.1H388.2v38.1H366.9V1.5h33.15A40.3,40.3,0,0,1,414.394,4a32.414,32.414,0,0,1,11.081,6.947A30.751,30.751,0,0,1,432.619,21.5a34.867,34.867,0,0,1,2.531,13.3,34.1,34.1,0,0,1-1.118,8.765,30.556,30.556,0,0,1-3.213,7.7,29.732,29.732,0,0,1-5.1,6.4,31.3,31.3,0,0,1-6.771,4.884l16.02,38.16L465.3,1.5h20.1l32.251,105Zm-42.9-75.9-10.5,37.65H485.1ZM388.2,19.8V51.9h9.45c9.538,0,16.2-6.6,16.2-16.051,0-9.6-6.389-16.05-15.9-16.05ZM150.9,106.5H128.7l-6.3-22.2H93.45l-6,22.2h-21l32.1-105h20.1l32.251,105ZM108,30.6,97.5,68.25h20.85Zm65.85,75.9h-21.3V1.5H185.7A40.3,40.3,0,0,1,200.044,4a32.413,32.413,0,0,1,11.081,6.947A30.75,30.75,0,0,1,218.269,21.5,34.869,34.869,0,0,1,220.8,34.8a34.094,34.094,0,0,1-1.118,8.765,30.554,30.554,0,0,1-3.213,7.7,29.729,29.729,0,0,1-5.1,6.4A31.3,31.3,0,0,1,204.6,62.55l13.225,33.455a33.26,33.26,0,0,0-14.145,10.207l-4.479.287L185.1,68.4H173.85v38.1Zm0-86.7V51.9h9.45c9.538,0,16.2-6.6,16.2-16.051,0-9.6-6.39-16.05-15.9-16.05ZM361.2,106.5H303.45v-5.828c1.2,0,2.411.054,3.61.158l.54-6.75c-1.382-.114-2.779-.173-4.15-.174V1.5h57V20.25h-35.7v23.4h29.7v17.7h-29.7v26.4H361.2V106.5Zm-62.7,0H282.08a45.948,45.948,0,0,1,14.238-5.2l2.181,5.2Zm-84.143-.972,0,0a28.677,28.677,0,0,1,5.982-3.154l1.069,2.7-7.05.452Zm13.459-1.241h0l.007-3.841a43.055,43.055,0,0,1,6.13-.425h.117a41.406,41.406,0,0,1,12.863,1.941l-19.116,2.326Zm45.809-.557h0L260.55,68.4H249.3l-1.415,26.708a49.54,49.54,0,0,0-14.022-1.93h-.333a51.277,51.277,0,0,0-5.7.368L228,1.5H261.15A40.3,40.3,0,0,1,275.494,4a32.415,32.415,0,0,1,11.081,6.947A30.752,30.752,0,0,1,293.719,21.5a34.867,34.867,0,0,1,2.531,13.3,34.088,34.088,0,0,1-1.118,8.765,30.555,30.555,0,0,1-3.213,7.7,29.729,29.729,0,0,1-5.1,6.4,31.307,31.307,0,0,1-6.771,4.884L293.63,94.9a50.451,50.451,0,0,0-10.343,3.359,61.041,61.041,0,0,0-9.661,5.471ZM249.3,19.8V51.9h9.45c9.538,0,16.2-6.6,16.2-16.051,0-9.6-6.39-16.05-15.9-16.05H249.3Z" transform="translate(6862.5 75.5)" fill="#ed1b24" stroke="#ed1b24" stroke-width="1"/><g transform="translate(7158.289 169.37)" fill="#fec200" stroke="#fec200" stroke-width="1"><rect width="16.657" height="15" stroke="none"/><rect x="0.5" y="0.5" width="15.657" height="14" fill="none"/></g><g transform="translate(6987.296 272.9) rotate(-14)" fill="#fec200"><path d="M78,65h0Z" stroke="none"/><path d="M 0 65 L 78 65 L 0 65 Z" stroke="none" fill="#fec200"/></g><path d="M143.817,47.171c-6.732-8.66-17.923-14.577-33.047-14.491C67.144,33.109,65.4,85.328,93.809,85.5c14.863,0,23.868-14.748,20.021-28.039l-6.295,1.8c2.623,9.175-3.235,19.807-13.639,19.807-19.5-.086-18.1-39.958,17.4-39.872,12.764,0,22.119,5.059,27.627,12.262-10.316,9.947-19.5,22.894-28.326,36.7-.612,0-1.311-.086-2.011-.086-10.054,0-16.436,2.487-19.409,5.488A7.693,7.693,0,0,0,86.9,98.447a7.139,7.139,0,0,0,1.836,5.059c1.749,2.058,5.071,3.687,9.7,4.373C79.821,138.662,61.811,167.645,38.468,167.3c-22.294-.257-32.261-20.751-31.911-40.044.437-22.123,15.3-44.159,39.867-44.245,34.359-.086,31.037,48.275,8.218,48.7-7.256.086-12.415-4.888-12.589-11.919a24.31,24.31,0,0,1,2.273-9.861l-6.032-2.487a29.307,29.307,0,0,0-2.8,12.433c.262,10.633,8.393,18.435,19.234,18.264,31.649-.6,34.709-61.995-8.655-61.566C17.922,76.925.524,101.534,0,127.172c-.437,22.98,12.152,46.217,38.381,46.56,27.452.429,46.6-31.126,66.619-64.053.35-.514.612-1.029.962-1.543a54.231,54.231,0,0,0,21.507-4.888c16.436,20.065,6.557,67.654-20.72,67.568-17.835-.086-15.475-32.841-1.574-32.669,6.382.086,7.431,8.317,5.683,12.948l6.12,2.229c3.41-9-.437-21.437-11.715-21.608-22.731-.257-25.179,45.36,1.4,45.531,33.31.172,45.112-52.906,26.665-77.172,18.01-11.919,21.857-32.155,14.076-47.418,10.316-8.66,21.769-13.805,34.8-12.69l.525-6.431C167.86,32.337,155.183,37.739,143.817,47.171ZM99.929,95.361a34.41,34.41,0,0,1,6.644-.772c-1.486,2.4-2.885,4.8-4.371,7.2-1.137-.086-2.186-.172-3.147-.343C90.137,100.162,93.2,96.733,99.929,95.361Zm10.142,6c1.311-2.058,2.623-4.2,3.934-6.259a23.961,23.961,0,0,1,8.218,3.344A47.452,47.452,0,0,1,110.07,101.363Zm18.709-6.174a29.307,29.307,0,0,0-11.1-5.916c7.694-12,15.824-23.237,24.654-31.983C147.751,69.808,143.817,85.757,128.78,95.189Zm61.112,35.156a135.878,135.878,0,0,1-8.655,14.663c-6.732,9.432-7.344,4.63-5.158-2.487,3.5-11.147,12.764-23.666,19.5-33.527l-5.42-3.6c-.962,1.372-1.836,2.744-2.8,4.116-2.885-4.459-9.355-6.088-16.611-.772-10.229,7.374-22.818,26.41-22.818,38.672,0,4.8,2.273,9.432,7.694,9.432,4.983,0,9.617-3.43,12.939-6.774.525,3.516,2.448,6.774,6.644,6.774,4.109,0,7.868-3.258,11.453-8.146a161.593,161.593,0,0,0,9.092-15.349Zm-30.6,18.864c-5.858,3.344-5.333-1.286-4.284-5.831,2.186-9.432,11.8-24.18,20.108-29.84,5.508-3.687,8.743-.772,6.557,4.287a124.357,124.357,0,0,0-8.743,15.006C170.4,138.148,164.625,146.122,159.292,149.209ZM219.7,130.345a135.873,135.873,0,0,1-8.655,14.663c-3.147,4.373-8.043,9.175-5.683-.086,2.535-10.29,12.677-16.549,12.764-28.9,0-7.117-3.934-9.346-8.306-10.718,1.923-4.63,3.235-8.832,3.322-11.833.175-3.087-1.749-6-5.246-5.917-5.945.171-11.54,9.346-11.366,14.748a7.172,7.172,0,0,0,4.371,6.945c-3.5,7.46-7.519,14.663-11.453,21.951l5.77,3c4.109-7.631,8.306-15.091,11.978-22.894,2.273.686,4.371,1.8,4.371,4.716-.087,10.976-13.289,19.293-13.289,32.412,0,4.116,1.923,8.4,6.732,8.4,4.109,0,7.868-3.258,11.453-8.146a161.6,161.6,0,0,0,9.092-15.349Zm-16-27.182c-2.011-1.543,1.311-6.174,2.623-7.717A53.171,53.171,0,0,1,203.7,103.163Zm45.812,27.182a135.878,135.878,0,0,1-8.655,14.663c-3.147,4.373-8.043,9.175-5.683-.086,2.535-10.29,12.677-16.549,12.764-28.9,0-7.117-3.934-9.346-8.306-10.718,1.923-4.63,3.235-8.832,3.322-11.833.175-3.087-1.749-6-5.246-5.917-5.945.171-11.54,9.346-11.366,14.748a7.172,7.172,0,0,0,4.371,6.945c-3.5,7.46-7.519,14.663-11.453,21.951l5.77,3c4.109-7.631,8.306-15.091,11.978-22.894,2.273.686,4.371,1.8,4.371,4.716C241.3,127,228.1,135.318,228.1,148.438c0,4.116,1.923,8.4,6.732,8.4,4.109,0,7.868-3.258,11.453-8.146a161.6,161.6,0,0,0,9.092-15.349Zm-16-27.182c-2.011-1.543,1.311-6.174,2.623-7.717A53.169,53.169,0,0,1,233.518,103.163ZM256.6,145.008c-6.819,9.432-7.344,4.63-5.158-2.487,3.41-11.147,12.764-23.666,19.5-33.527l-5.42-3.6c-7.344,10.633-16.7,23.323-20.37,35.5a24.9,24.9,0,0,0-1.311,7.546c0,4.116,1.923,8.4,6.732,8.4,4.109,0,7.868-3.258,11.366-8.146a144.874,144.874,0,0,0,9.18-15.349l-5.858-3A135.878,135.878,0,0,1,256.6,145.008Zm15.3-48.532c-1.311,1.8-2.535,3.6-3.759,5.4l5.508,3.6c1.224-1.8,2.448-3.6,3.672-5.316Zm76.149-38.929c-12.327.257-23.43,6.517-33.222,15.863a138.107,138.107,0,0,0-19.409,24.352c-10.229,4.116-19.584,13.119-30.6,33.441l5.77,3c6.12-11.319,11.628-18.693,17.136-23.58-2.273,3.944-5.246,9.089-7.956,14.234-3.585,6.86-6.907,13.891-8.043,18.607a21.826,21.826,0,0,0-.7,4.973c0,4.116,2.011,8.4,6.732,8.4,4.2,0,7.868-3.258,11.453-8.146a161.6,161.6,0,0,0,9.092-15.349l-5.858-3a152.668,152.668,0,0,1-8.568,14.663c-3.847,5.316-7.956,8.489-5.77-.086.962-4.03,4.109-10.633,7.519-17.064,3.5-6.688,7.256-13.2,9.617-17.235,1.4-2.487,2.885-4.888,4.371-7.288,6.644-2.315,13.726-2.572,22.119-2.83a179.593,179.593,0,0,0,27.277-2.4C378.209,92.96,377.248,56.775,348.047,57.546Zm-.175,34.213a175.146,175.146,0,0,1-26.316,2.315,123.707,123.707,0,0,0-16.611,1.2A121.052,121.052,0,0,1,319.371,78.04c8.743-8.317,18.36-13.805,28.764-14.062C369.467,63.377,368.942,88.072,347.872,91.759ZM300.924,150.41c-4.109.086-5.421-4.2-5.246-7.631a25.529,25.529,0,0,1,1.661-7.117c11.977-.257,20.633-8.06,24.654-15.177,5.246-9.175,2.535-14.92-3.41-15.091-3.147,0-7.169,1.458-11.366,4.8-9.7,7.8-17.66,23.237-18.1,32.326-.35,7.288,3.759,14.405,11.89,14.32,12.152-.086,18.709-14.577,23.518-23.58l-5.77-3C315.349,136.519,309.142,150.41,300.924,150.41Zm10.928-35.671c2.623-1.972,4.459-3,5.42-2.915,1.311,0,1.049,1.886-1.049,5.574A23.852,23.852,0,0,1,300.4,128.973C302.672,124.772,307.044,118.341,311.852,114.739Zm59.674-4.116a13.407,13.407,0,0,0-5.157,3.12c-9.514,8.352-19.062,31.115-24.967,30.236,1.137-3,3.4-8.232,3.665-11.919.787-10.89.532-16.549-1.392-26.667,1.749-4.287,4.022-9.089,4.2-11.919.612-3.087-.437-9.231-4.2-9.4-5.42-.257-7.169,8.716-7.169,12.4a71.691,71.691,0,0,0,1.224,8.832c-2.011,4.716-4.532,10.375-7.068,15.177-4.107.452-6.934,3.277-10.418,6.86-5.376,5.409-6.037,10.7-6.184,15.177-.175,7.546.064,16.806,9.681,16.892,6.032,0,11.366-4.716,14.513-9.346,11.628,3.087,25.286-32.511,31.629-34.041Zm-47.784,42.359c-4.634-.086-5.333-8.06-5.246-11.49a31.584,31.584,0,0,1,1.749-9.432l3.84,1.94c1.094-2.07,2.457-3.867,3.7-6.2l.243-.459c1.278,3.6,4.7,6.87,5.5,11.177a11.669,11.669,0,0,1,0,4.258c-.118.819-.369,2.566-.608,3.6-.056.138-.3-.4,0,0,0,0,.086-.622.077-.609C331.081,148.589,327.5,152.982,323.742,152.982Zm14.513-17.321c-.087,1.458,1.322,1.266,1.06,2.553-1.137-5.059-1.938-13.024-5.785-16.368.962-1.972,3.676-6.131,4.725-8.1C339.741,119.574,338.78,128.887,338.255,135.661Z" transform="translate(6987.308 140.642)" fill="#ed1b24" stroke="#ed1b24" stroke-width="1"/><path d="M532.394,232.982s33.258-11.89,27.744,0-14.82,53.076,9.478,37.567-7.582-71.514-7.582-71.514,3.619,4.653,7.582,2.929c2.552-1.11,16.223,28.982,15.209,51.956-.545,12.371-6.853,22.04-19,24.556-6.38,1.321-8.354,1.025-11.89-1.034-14.105-8.2-3.308-40.15-1.206-42.392,2.585-2.757-21.368,3.619-21.368,3.619Z" transform="translate(6828 18)" fill="#ed1b24" stroke="#fec200" stroke-width="1"/><g transform="translate(7388 207)" fill="#ed1b24" stroke="#fec200" stroke-width="3"><circle cx="7" cy="7" r="7" stroke="none"/><circle cx="7" cy="7" r="5.5" fill="none"/></g><path d="M530.834,235.089c5.607,8.382,87.387-20.388,61.108-35.113S525.227,226.707,530.834,235.089Z" transform="translate(6861.693 -20)" fill="#fec200" stroke="#ed1b24" stroke-width="4"/></g></svg>